<svg width="157" height="28" viewBox="0 0 157 28" fill="none" xmlns="http://www.w3.org/2000/svg">
<path d="M154.541 17.2902H145.498V22.8637H156.177V27.1892H139.75V3.86694H156.211V8.209H145.498V13.1254H154.541V17.2902Z" fill="#F03F2F"/>
<path d="M127.316 22.8637H137.326V27.1892H121.568V3.86694H127.316V22.8637Z" fill="#F03F2F"/>
<path d="M119.165 28L108.198 25.8136L97.2318 28L96.6855 25.3361L101.254 24.4261L98.8997 23.9534L99.4532 21.2919L108.208 23.0363L116.961 21.2919L117.517 23.9534L115.16 24.4261L119.728 25.3361L119.165 28ZM110.845 7.98683L108.614 0L107.094 7.67955L105.936 4.86443L105.235 9.61776L108.394 19.2355L110.845 7.98683ZM105.349 14.6713L104.887 16.4748L103.937 10.4238L101.805 18.1081L101.341 15.1535L99.9995 20.0628L107.338 21.2446L105.349 14.6713ZM116.243 19.9683L113.739 13.4374L113.233 15.716L112.66 7.67955C112.66 7.67955 109.308 21.4881 109.308 21.7174L116.243 19.9683Z" fill="#F03F2F"/>
<path d="M90.0232 20.9893C90.0409 20.6226 89.969 20.257 89.8135 19.9228C89.6579 19.5887 89.4233 19.2955 89.1288 19.0677C88.5342 18.6091 87.4868 18.1364 85.9866 17.6495C84.7332 17.2553 83.5075 16.7816 82.3173 16.2313C79.2314 14.7374 77.6885 12.6937 77.6885 10.0999C77.6686 8.86512 78.0757 7.65994 78.8439 6.6797C79.6956 5.63151 80.8263 4.83327 82.1119 4.37276C83.6264 3.80242 85.2388 3.52158 86.8616 3.54547C88.4458 3.51951 90.0174 3.82494 91.4711 4.4413C92.7559 4.97854 93.8558 5.86543 94.6399 6.99643C95.3979 8.11689 95.7921 9.43504 95.7712 10.7783H90.0377C90.0377 9.83283 89.7404 9.09615 89.1458 8.56827C88.5511 8.04038 87.7454 7.7788 86.7286 7.78353C85.7021 7.78353 84.8908 8.00492 84.2946 8.44772C84.0167 8.63739 83.7903 8.8904 83.6349 9.18486C83.4794 9.47933 83.3997 9.80638 83.4026 10.1377C83.4026 10.7365 83.7297 11.2786 84.384 11.7639C85.0382 12.2493 86.1904 12.7512 87.8405 13.2696C89.2508 13.6876 90.6126 14.2484 91.9037 14.9431C94.482 16.3944 95.7712 18.3964 95.7712 20.9492C95.7712 22.9882 94.9848 24.59 93.412 25.7545C91.8393 26.919 89.6832 27.5005 86.9437 27.4989C85.1401 27.5248 83.3512 27.1785 81.6937 26.4825C80.1274 25.8033 78.9478 24.8744 78.155 23.6957C77.3529 22.4826 76.9396 21.0628 76.9682 19.6184H82.7331C82.7331 20.868 83.0634 21.789 83.7241 22.3815C84.3848 22.974 85.458 23.2703 86.9437 23.2703C87.8937 23.2703 88.6357 23.0717 89.1941 22.6699C89.4642 22.477 89.6813 22.2218 89.826 21.9269C89.9707 21.632 90.0384 21.3066 90.0232 20.9799" fill="#F03F2F"/>
<path d="M65.5694 6.10057L67.4644 2.2407L68.4168 0.30249H66.2196L65.2672 2.2407L64.4671 3.8669L63.6647 2.2407L62.7075 0.30249H60.5079L61.465 2.2407L63.3722 6.10293L53.0195 27.1892H55.2167L64.472 8.33423L72.8256 25.251H71.2617L64.4792 11.5134L57.733 25.251L56.783 27.1892H58.9802H60.5465H62.7437L63.6961 25.251L64.4937 23.6224L65.2986 25.251L66.2558 27.1892H68.4554L67.4982 25.251L64.4889 19.1575L61.4989 25.251H59.9302L64.4841 15.9783L69.0621 25.251L70.0193 27.1892H72.2189H75.9824L65.5694 6.10057Z" fill="white"/>
<path d="M40.1154 18.5075L37.7562 21.039V27.1892H32.0059V3.86694H37.7562V14.1513L39.7552 11.1872L44.8965 3.86694H52.0053L43.9466 14.1843L52.0053 27.1892H45.1914L40.1154 18.5075Z" fill="white"/>
<path d="M28.0089 3.86694H22.2754V27.1892H28.0089V3.86694Z" fill="white"/>
<path d="M5.75039 14.6145H9.37611C10.4687 14.6145 11.2905 14.334 11.8416 13.7731C12.3927 13.2121 12.6683 12.4242 12.6683 11.4094C12.6683 10.4056 12.3903 9.61775 11.8343 9.04574C11.2784 8.47373 10.4622 8.1893 9.38578 8.19245H5.76006L5.75039 14.6145ZM8.86126 18.94H5.75039V27.1822H0V3.86694H9.38578C12.2138 3.86694 14.4255 4.48071 16.0208 5.70824C17.6162 6.93577 18.413 8.66913 18.4114 10.9083C18.4114 12.5298 18.0754 13.8739 17.4035 14.9407C16.7315 16.0075 15.6841 16.8742 14.2612 17.5408L19.2308 26.9458V27.1822H13.0719L8.86126 18.94Z" fill="white"/>
</svg>
