<svg width="12" height="12" viewBox="0 0 12 12" fill="none" xmlns="http://www.w3.org/2000/svg">
<path d="M8.35488 7.13409C8.84445 6.40687 9.13048 5.53183 9.13048 4.59119C9.13048 2.07391 7.08251 0.0259399 4.56523 0.0259399C2.04795 0.0259399 0 2.07391 0 4.59117C0 7.10842 2.04797 9.15641 4.56525 9.15641C5.52445 9.15641 6.41529 8.85881 7.15085 8.35145L10.7893 11.9741L12 10.7635L8.35488 7.13409ZM4.56525 7.87417C2.75899 7.87417 1.28944 6.40464 1.28944 4.59836C1.28944 2.7921 2.75897 1.32257 4.56525 1.32257C6.37153 1.32257 7.84106 2.7921 7.84106 4.59838C7.84106 6.40467 6.37151 7.87417 4.56525 7.87417Z" fill="#212121"/>
</svg>
