<svg width="20" height="20" viewBox="0 0 20 20" fill="none" xmlns="http://www.w3.org/2000/svg">
<path fill-rule="evenodd" clip-rule="evenodd" d="M17.9073 6.81491C17.2406 7.48158 16.9073 7.81491 16.493 7.81491C16.0788 7.81491 15.7455 7.48158 15.0788 6.81491L13.185 4.92112C12.5184 4.25445 12.185 3.92112 12.185 3.5069C12.185 3.09269 12.5184 2.75936 13.185 2.09269L13.308 1.96973C13.9747 1.30306 14.308 0.969727 14.7222 0.969727C15.1364 0.969727 15.4698 1.30306 16.1364 1.96973L18.0302 3.86352C18.6969 4.53019 19.0302 4.86352 19.0302 5.27774C19.0302 5.69195 18.6969 6.02528 18.0302 6.69195L17.9073 6.81491ZM2.55554 19.4444C1.61273 19.4444 1.14133 19.4444 0.848435 19.1515C0.555542 18.8586 0.555542 18.3872 0.555542 17.4444V15.5506C0.555542 15.1418 0.555542 14.9375 0.631662 14.7537C0.707783 14.5699 0.852298 14.4254 1.14133 14.1364L9.17605 6.10166C9.84272 5.43499 10.1761 5.10166 10.5903 5.10166C11.0045 5.10166 11.3378 5.43499 12.0045 6.10166L13.8983 7.99545C14.5649 8.66212 14.8983 8.99545 14.8983 9.40967C14.8983 9.82388 14.5649 10.1572 13.8983 10.8239L5.86355 18.8586C5.57452 19.1476 5.43001 19.2921 5.24623 19.3683C5.06246 19.4444 4.85809 19.4444 4.44934 19.4444H2.55554Z" fill="#D5D4E2"/>
</svg>
