<svg xmlns="http://www.w3.org/2000/svg" xmlns:xlink="http://www.w3.org/1999/xlink"><defs>
<clipPath id="clip0_8:5553">
<rect width="22" height="22"/>
</clipPath>

<clipPath id="clip0_8:5656">
<rect width="22" height="22"/>
</clipPath>
</defs><symbol id="add" viewBox="0 0 22 22">
<g clip-path="url(#clip0_8:5553)">
<path d="M21.0832 10.0833H19.2498V8.25C19.2498 8.00689 19.1533 7.77373 18.9814 7.60182C18.8094 7.42991 18.5763 7.33334 18.3332 7.33334C18.0901 7.33334 17.8569 7.42991 17.685 7.60182C17.5131 7.77373 17.4165 8.00689 17.4165 8.25V10.0833H15.5832C15.3401 10.0833 15.1069 10.1799 14.935 10.3518C14.7631 10.5237 14.6665 10.7569 14.6665 11C14.6665 11.2431 14.7631 11.4763 14.935 11.6482C15.1069 11.8201 15.3401 11.9167 15.5832 11.9167H17.4165V13.75C17.4165 13.9931 17.5131 14.2263 17.685 14.3982C17.8569 14.5701 18.0901 14.6667 18.3332 14.6667C18.5763 14.6667 18.8094 14.5701 18.9814 14.3982C19.1533 14.2263 19.2498 13.9931 19.2498 13.75V11.9167H21.0832C21.3263 11.9167 21.5594 11.8201 21.7314 11.6482C21.9033 11.4763 21.9998 11.2431 21.9998 11C21.9998 10.7569 21.9033 10.5237 21.7314 10.3518C21.5594 10.1799 21.3263 10.0833 21.0832 10.0833Z"/>
<path d="M8.25 11C9.3378 11 10.4012 10.6774 11.3056 10.0731C12.2101 9.46874 12.9151 8.60976 13.3313 7.60476C13.7476 6.59977 13.8565 5.4939 13.6443 4.42701C13.4321 3.36011 12.9083 2.3801 12.1391 1.61092C11.3699 0.841726 10.3899 0.317902 9.323 0.105683C8.2561 -0.106535 7.15023 0.00238307 6.14524 0.418665C5.14025 0.834947 4.28126 1.5399 3.67692 2.44437C3.07257 3.34884 2.75 4.41221 2.75 5.5C2.75146 6.95825 3.33139 8.35635 4.36252 9.38748C5.39366 10.4186 6.79176 10.9985 8.25 11ZM8.25 1.83334C8.9752 1.83334 9.68411 2.04838 10.2871 2.45128C10.8901 2.85418 11.36 3.42683 11.6376 4.09683C11.9151 4.76683 11.9877 5.50407 11.8462 6.21533C11.7047 6.9266 11.3555 7.57994 10.8427 8.09273C10.3299 8.60552 9.67659 8.95474 8.96533 9.09622C8.25407 9.23769 7.51682 9.16508 6.84683 8.88756C6.17683 8.61004 5.60418 8.14007 5.20128 7.53709C4.79838 6.93411 4.58333 6.2252 4.58333 5.5C4.58333 4.52754 4.96964 3.59491 5.65727 2.90728C6.34491 2.21964 7.27754 1.83334 8.25 1.83334Z"/>
<path d="M8.25 12.8333C6.06271 12.8358 3.9657 13.7057 2.41905 15.2524C0.872399 16.799 0.00242628 18.896 0 21.0833C0 21.3265 0.0965771 21.5596 0.268485 21.7315C0.440394 21.9034 0.673552 22 0.916667 22C1.15978 22 1.39294 21.9034 1.56485 21.7315C1.73676 21.5596 1.83333 21.3265 1.83333 21.0833C1.83333 19.3815 2.50937 17.7494 3.71273 16.5461C4.91609 15.3427 6.54819 14.6667 8.25 14.6667C9.95181 14.6667 11.5839 15.3427 12.7873 16.5461C13.9906 17.7494 14.6667 19.3815 14.6667 21.0833C14.6667 21.3265 14.7632 21.5596 14.9352 21.7315C15.1071 21.9034 15.3402 22 15.5833 22C15.8264 22 16.0596 21.9034 16.2315 21.7315C16.4034 21.5596 16.5 21.3265 16.5 21.0833C16.4976 18.896 15.6276 16.799 14.081 15.2524C12.5343 13.7057 10.4373 12.8358 8.25 12.8333Z"/>
</g>

</symbol><symbol id="output" viewBox="0 0 22 22">
<g clip-path="url(#clip0_8:5656)">
<path d="M6.41667 20.1667H4.58333C3.85399 20.1667 3.15451 19.8769 2.63879 19.3612C2.12306 18.8455 1.83333 18.146 1.83333 17.4167V4.58333C1.83333 3.85399 2.12306 3.15451 2.63879 2.63879C3.15451 2.12306 3.85399 1.83333 4.58333 1.83333H6.41667C6.65978 1.83333 6.89294 1.73676 7.06485 1.56485C7.23676 1.39294 7.33333 1.15978 7.33333 0.916667C7.33333 0.673552 7.23676 0.440394 7.06485 0.268485C6.89294 0.0965771 6.65978 0 6.41667 0L4.58333 0C3.3682 0.00145554 2.20326 0.484808 1.34403 1.34403C0.484808 2.20326 0.00145554 3.3682 0 4.58333L0 17.4167C0.00145554 18.6318 0.484808 19.7967 1.34403 20.656C2.20326 21.5152 3.3682 21.9985 4.58333 22H6.41667C6.65978 22 6.89294 21.9034 7.06485 21.7315C7.23676 21.5596 7.33333 21.3264 7.33333 21.0833C7.33333 20.8402 7.23676 20.6071 7.06485 20.4352C6.89294 20.2632 6.65978 20.1667 6.41667 20.1667Z"/>
<path d="M9.59027 4.85193L5.38552 9.05576C4.87155 9.57229 4.58301 10.2713 4.58301 11C4.58301 11.7287 4.87155 12.4277 5.38552 12.9443L9.58936 17.1481C9.67392 17.2356 9.77507 17.3055 9.8869 17.3535C9.99874 17.4016 10.119 17.4269 10.2407 17.4279C10.3625 17.429 10.4832 17.4058 10.5958 17.3597C10.7085 17.3136 10.8108 17.2455 10.8969 17.1595C10.983 17.0734 11.051 16.971 11.0971 16.8584C11.1432 16.7457 11.1664 16.625 11.1653 16.5033C11.1643 16.3816 11.139 16.2613 11.091 16.1495C11.0429 16.0376 10.9731 15.9365 10.8855 15.8519L6.95211 11.9167H21.0834C21.3266 11.9167 21.5597 11.8201 21.7316 11.6482C21.9035 11.4763 22.0001 11.2431 22.0001 11C22.0001 10.7569 21.9035 10.5237 21.7316 10.3518C21.5597 10.1799 21.3266 10.0833 21.0834 10.0833H6.95119L10.8864 6.1481C10.974 6.06354 11.0438 5.96239 11.0919 5.85055C11.1399 5.73871 11.1652 5.61843 11.1663 5.49671C11.1673 5.375 11.1441 5.25429 11.098 5.14164C11.0519 5.02898 10.9839 4.92664 10.8978 4.84057C10.8117 4.7545 10.7094 4.68643 10.5967 4.64034C10.4841 4.59425 10.3634 4.57106 10.2417 4.57212C10.1199 4.57317 9.99966 4.59846 9.88782 4.6465C9.77598 4.69455 9.67483 4.76438 9.59027 4.85193Z"/>
</g>

</symbol><symbol id="settings" viewBox="0 0 20 22">
<path d="M18.5195 12.7417L18.1125 12.507C18.2957 11.5101 18.2957 10.4881 18.1125 9.49117L18.5195 9.2565C18.8325 9.07593 19.1068 8.83549 19.3269 8.54889C19.5469 8.26229 19.7084 7.93516 19.802 7.58617C19.8957 7.23717 19.9196 6.87315 19.8726 6.51489C19.8255 6.15664 19.7084 5.81115 19.5278 5.49817C19.3472 5.18518 19.1068 4.91083 18.8202 4.69077C18.5336 4.47071 18.2065 4.30926 17.8575 4.21562C17.5085 4.12199 17.1445 4.09802 16.7862 4.14506C16.4279 4.19211 16.0825 4.30927 15.7695 4.48983L15.3616 4.72542C14.5911 4.06718 13.7058 3.55689 12.75 3.22025V2.75C12.75 2.02065 12.4602 1.32118 11.9445 0.805456C11.4288 0.289731 10.7293 0 9.99998 0C9.27063 0 8.57116 0.289731 8.05544 0.805456C7.53971 1.32118 7.24998 2.02065 7.24998 2.75V3.22025C6.29425 3.5581 5.40917 4.06963 4.63931 4.72908L4.22956 4.49167C3.59746 4.12699 2.84639 4.02836 2.14156 4.21746C1.43674 4.40656 0.835901 4.8679 0.471228 5.5C0.106556 6.1321 0.00791947 6.88318 0.197019 7.588C0.386118 8.29282 0.847462 8.89366 1.47956 9.25833L1.88656 9.493C1.70333 10.4899 1.70333 11.5119 1.88656 12.5088L1.47956 12.7435C0.847462 13.1082 0.386118 13.709 0.197019 14.4138C0.00791947 15.1187 0.106556 15.8697 0.471228 16.5018C0.835901 17.1339 1.43674 17.5953 2.14156 17.7844C2.84639 17.9735 3.59746 17.8748 4.22956 17.5102L4.63748 17.2746C5.40818 17.9329 6.29388 18.4432 7.24998 18.7798V19.25C7.24998 19.9793 7.53971 20.6788 8.05544 21.1945C8.57116 21.7103 9.27063 22 9.99998 22C10.7293 22 11.4288 21.7103 11.9445 21.1945C12.4602 20.6788 12.75 19.9793 12.75 19.25V18.7798C13.7057 18.4419 14.5908 17.9304 15.3606 17.2709L15.7704 17.5074C16.4025 17.8721 17.1536 17.9707 17.8584 17.7816C18.5632 17.5925 19.1641 17.1312 19.5287 16.4991C19.8934 15.867 19.992 15.1159 19.8029 14.4111C19.6138 13.7063 19.1525 13.1054 18.5204 12.7408L18.5195 12.7417ZM16.1838 9.28033C16.4942 10.4051 16.4942 11.593 16.1838 12.7178C16.1296 12.9136 16.142 13.1218 16.219 13.3098C16.2959 13.4978 16.4332 13.6549 16.6091 13.7564L17.6028 14.3303C17.8135 14.4518 17.9672 14.6521 18.0302 14.887C18.0932 15.1219 18.0603 15.3722 17.9388 15.5829C17.8172 15.7935 17.617 15.9473 17.382 16.0103C17.1471 16.0733 16.8968 16.0404 16.6861 15.9188L15.6906 15.3432C15.5146 15.2412 15.3095 15.2007 15.1079 15.2281C14.9062 15.2554 14.7194 15.3492 14.5769 15.4944C13.761 16.3274 12.7331 16.9216 11.6041 17.2132C11.4071 17.2638 11.2325 17.3786 11.1079 17.5394C10.9832 17.7002 10.9156 17.898 10.9157 18.1014V19.25C10.9157 19.4931 10.8192 19.7263 10.6472 19.8982C10.4753 20.0701 10.2422 20.1667 9.99906 20.1667C9.75595 20.1667 9.52279 20.0701 9.35088 19.8982C9.17897 19.7263 9.0824 19.4931 9.0824 19.25V18.1023C9.0825 17.8989 9.0149 17.7012 8.89027 17.5403C8.76563 17.3795 8.59103 17.2647 8.39398 17.2141C7.26496 16.9214 6.23736 16.3258 5.42215 15.4917C5.27963 15.3464 5.09282 15.2527 4.89117 15.2253C4.68952 15.1979 4.48449 15.2384 4.3084 15.3404L3.31473 15.9152C3.21044 15.9763 3.09509 16.0162 2.97531 16.0326C2.85553 16.049 2.7337 16.0415 2.61683 16.0106C2.49995 15.9797 2.39035 15.926 2.29431 15.8525C2.19828 15.7791 2.11772 15.6874 2.05728 15.5827C1.99683 15.478 1.95769 15.3624 1.94211 15.2425C1.92653 15.1226 1.93481 15.0009 1.96649 14.8842C1.99816 14.7675 2.0526 14.6583 2.12667 14.5627C2.20074 14.4672 2.29297 14.3873 2.39806 14.3275L3.39173 13.7537C3.56768 13.6521 3.70493 13.4951 3.78192 13.3071C3.8589 13.1191 3.87126 12.9109 3.81706 12.7151C3.50664 11.5903 3.50664 10.4024 3.81706 9.27758C3.87029 9.08222 3.85734 8.87474 3.78023 8.68752C3.70311 8.5003 3.56618 8.34387 3.39081 8.24267L2.39715 7.66883C2.18649 7.54728 2.03274 7.34701 1.96974 7.1121C1.90673 6.87719 1.93963 6.62687 2.06119 6.41621C2.18274 6.20555 2.38301 6.05181 2.61792 5.9888C2.85283 5.9258 3.10315 5.95869 3.31381 6.08025L4.30931 6.65592C4.48493 6.75814 4.68953 6.79911 4.89096 6.7724C5.0924 6.74568 5.27925 6.6528 5.42215 6.50833C6.23806 5.6754 7.26595 5.0811 8.3949 4.78958C8.59256 4.73877 8.76761 4.62344 8.89231 4.46188C9.01701 4.30031 9.08423 4.10176 9.08331 3.89767V2.75C9.08331 2.50688 9.17989 2.27373 9.3518 2.10182C9.52371 1.92991 9.75686 1.83333 9.99998 1.83333C10.2431 1.83333 10.4763 1.92991 10.6482 2.10182C10.8201 2.27373 10.9166 2.50688 10.9166 2.75V3.89767C10.9165 4.10113 10.9841 4.29884 11.1088 4.45966C11.2334 4.62047 11.408 4.73526 11.6051 4.78592C12.7344 5.07847 13.7623 5.67406 14.5778 6.50833C14.7203 6.65359 14.9071 6.7473 15.1088 6.77469C15.3104 6.80207 15.5155 6.76158 15.6916 6.65958L16.6852 6.08483C16.7895 6.02369 16.9049 5.98379 17.0246 5.96741C17.1444 5.95103 17.2663 5.95851 17.3831 5.98941C17.5 6.02031 17.6096 6.07402 17.7056 6.14745C17.8017 6.22089 17.8822 6.31259 17.9427 6.41728C18.0031 6.52198 18.0423 6.63759 18.0578 6.75747C18.0734 6.87736 18.0651 6.99913 18.0335 7.1158C18.0018 7.23247 17.9474 7.34172 17.8733 7.43726C17.7992 7.5328 17.707 7.61275 17.6019 7.6725L16.6082 8.24633C16.4332 8.34781 16.2966 8.50435 16.2199 8.69155C16.1431 8.87875 16.1304 9.08609 16.1838 9.28125V9.28033Z"/>
</symbol><symbol id="users" viewBox="0 0 22 22">
<path d="M6.875 11.9167C6.05915 11.9167 5.26163 11.6747 4.58327 11.2215C3.90492 10.7682 3.37621 10.124 3.064 9.37024C2.75179 8.61649 2.6701 7.78709 2.82926 6.98692C2.98842 6.18675 3.38129 5.45174 3.95818 4.87485C4.53508 4.29796 5.27008 3.90509 6.07025 3.74593C6.87042 3.58676 7.69982 3.66845 8.45357 3.98066C9.20731 4.29288 9.85155 4.82159 10.3048 5.49994C10.7581 6.17829 11 6.97582 11 7.79167C10.9988 8.88531 10.5638 9.93382 9.79048 10.7071C9.01715 11.4805 7.96865 11.9155 6.875 11.9167ZM6.875 5.5C6.42175 5.5 5.97868 5.63441 5.60182 5.88622C5.22496 6.13803 4.93123 6.49594 4.75778 6.91468C4.58433 7.33343 4.53894 7.79421 4.62737 8.23875C4.71579 8.68329 4.93405 9.09163 5.25455 9.41212C5.57504 9.73262 5.98338 9.95088 6.42792 10.0393C6.87246 10.1277 7.33324 10.0823 7.75198 9.90889C8.17073 9.73544 8.52864 9.44171 8.78045 9.06485C9.03226 8.68799 9.16667 8.24492 9.16667 7.79167C9.16667 7.18388 8.92522 6.60099 8.49545 6.17121C8.06568 5.74144 7.48279 5.5 6.875 5.5ZM13.75 21.0833V20.625C13.75 18.8016 13.0257 17.053 11.7364 15.7636C10.447 14.4743 8.69836 13.75 6.875 13.75C5.05164 13.75 3.30295 14.4743 2.01364 15.7636C0.724328 17.053 0 18.8016 0 20.625L0 21.0833C0 21.3264 0.0965771 21.5596 0.268485 21.7315C0.440394 21.9034 0.673552 22 0.916667 22C1.15978 22 1.39294 21.9034 1.56485 21.7315C1.73676 21.5596 1.83333 21.3264 1.83333 21.0833V20.625C1.83333 19.2879 2.36451 18.0055 3.31 17.06C4.2555 16.1145 5.53787 15.5833 6.875 15.5833C8.21213 15.5833 9.4945 16.1145 10.44 17.06C11.3855 18.0055 11.9167 19.2879 11.9167 20.625V21.0833C11.9167 21.3264 12.0132 21.5596 12.1852 21.7315C12.3571 21.9034 12.5902 22 12.8333 22C13.0764 22 13.3096 21.9034 13.4815 21.7315C13.6534 21.5596 13.75 21.3264 13.75 21.0833ZM22 16.5C22 15.2613 21.6414 14.0491 20.9676 13.0097C20.2937 11.9703 19.3335 11.1481 18.2027 10.6425C17.0719 10.1368 15.8189 9.96929 14.5949 10.1601C13.371 10.3509 12.2285 10.8919 11.3053 11.7178C11.2143 11.7977 11.1401 11.8948 11.0869 12.0036C11.0337 12.1124 11.0025 12.2307 10.9953 12.3515C10.9881 12.4724 11.0048 12.5935 11.0447 12.7079C11.0845 12.8222 11.1466 12.9276 11.2274 13.0178C11.3082 13.108 11.406 13.1813 11.5153 13.2335C11.6245 13.2857 11.7431 13.3157 11.864 13.3218C11.985 13.328 12.1059 13.31 12.2199 13.2692C12.3339 13.2283 12.4386 13.1652 12.5281 13.0836C13.1876 12.4938 14.0037 12.1075 14.8779 11.9714C15.7521 11.8352 16.647 11.9549 17.4546 12.3161C18.2623 12.6774 18.9481 13.2646 19.4293 14.007C19.9106 14.7494 20.1667 15.6153 20.1667 16.5C20.1667 16.7431 20.2632 16.9763 20.4352 17.1482C20.6071 17.3201 20.8402 17.4167 21.0833 17.4167C21.3264 17.4167 21.5596 17.3201 21.7315 17.1482C21.9034 16.9763 22 16.7431 22 16.5ZM16.0417 8.25C15.2258 8.25 14.4283 8.00807 13.7499 7.55481C13.0716 7.10155 12.5429 6.45732 12.2307 5.70357C11.9185 4.94983 11.8368 4.12043 11.9959 3.32025C12.1551 2.52008 12.548 1.78508 13.1249 1.20819C13.7017 0.631295 14.4367 0.238427 15.2369 0.0792626C16.0371 -0.0799014 16.8665 0.0017873 17.6202 0.313999C18.374 0.62621 19.0182 1.15492 19.4715 1.83327C19.9247 2.51163 20.1667 3.30915 20.1667 4.125C20.1655 5.21865 19.7305 6.26715 18.9571 7.04048C18.1838 7.8138 17.1353 8.24879 16.0417 8.25ZM16.0417 1.83333C15.5884 1.83333 15.1453 1.96774 14.7685 2.21955C14.3916 2.47136 14.0979 2.82927 13.9244 3.24802C13.751 3.66677 13.7056 4.12754 13.794 4.57208C13.8825 5.01662 14.1007 5.42496 14.4212 5.74545C14.7417 6.06595 15.15 6.28421 15.5946 6.37263C16.0391 6.46106 16.4999 6.41568 16.9186 6.24223C17.3374 6.06877 17.6953 5.77505 17.9471 5.39818C18.1989 5.02132 18.3333 4.57825 18.3333 4.125C18.3333 3.51721 18.0919 2.93432 17.6621 2.50455C17.2323 2.07478 16.6495 1.83333 16.0417 1.83333Z"/>
</symbol></svg>