<svg width="22" height="22" viewBox="0 0 22 22" fill="none" xmlns="http://www.w3.org/2000/svg">
<g clip-path="url(#clip0_8:5553)">
<path d="M21.0832 10.0833H19.2498V8.25C19.2498 8.00689 19.1533 7.77373 18.9814 7.60182C18.8094 7.42991 18.5763 7.33334 18.3332 7.33334C18.0901 7.33334 17.8569 7.42991 17.685 7.60182C17.5131 7.77373 17.4165 8.00689 17.4165 8.25V10.0833H15.5832C15.3401 10.0833 15.1069 10.1799 14.935 10.3518C14.7631 10.5237 14.6665 10.7569 14.6665 11C14.6665 11.2431 14.7631 11.4763 14.935 11.6482C15.1069 11.8201 15.3401 11.9167 15.5832 11.9167H17.4165V13.75C17.4165 13.9931 17.5131 14.2263 17.685 14.3982C17.8569 14.5701 18.0901 14.6667 18.3332 14.6667C18.5763 14.6667 18.8094 14.5701 18.9814 14.3982C19.1533 14.2263 19.2498 13.9931 19.2498 13.75V11.9167H21.0832C21.3263 11.9167 21.5594 11.8201 21.7314 11.6482C21.9033 11.4763 21.9998 11.2431 21.9998 11C21.9998 10.7569 21.9033 10.5237 21.7314 10.3518C21.5594 10.1799 21.3263 10.0833 21.0832 10.0833Z"/>
<path d="M8.25 11C9.3378 11 10.4012 10.6774 11.3056 10.0731C12.2101 9.46874 12.9151 8.60976 13.3313 7.60476C13.7476 6.59977 13.8565 5.4939 13.6443 4.42701C13.4321 3.36011 12.9083 2.3801 12.1391 1.61092C11.3699 0.841726 10.3899 0.317902 9.323 0.105683C8.2561 -0.106535 7.15023 0.00238307 6.14524 0.418665C5.14025 0.834947 4.28126 1.5399 3.67692 2.44437C3.07257 3.34884 2.75 4.41221 2.75 5.5C2.75146 6.95825 3.33139 8.35635 4.36252 9.38748C5.39366 10.4186 6.79176 10.9985 8.25 11ZM8.25 1.83334C8.9752 1.83334 9.68411 2.04838 10.2871 2.45128C10.8901 2.85418 11.36 3.42683 11.6376 4.09683C11.9151 4.76683 11.9877 5.50407 11.8462 6.21533C11.7047 6.9266 11.3555 7.57994 10.8427 8.09273C10.3299 8.60552 9.67659 8.95474 8.96533 9.09622C8.25407 9.23769 7.51682 9.16508 6.84683 8.88756C6.17683 8.61004 5.60418 8.14007 5.20128 7.53709C4.79838 6.93411 4.58333 6.2252 4.58333 5.5C4.58333 4.52754 4.96964 3.59491 5.65727 2.90728C6.34491 2.21964 7.27754 1.83334 8.25 1.83334Z"/>
<path d="M8.25 12.8333C6.06271 12.8358 3.9657 13.7057 2.41905 15.2524C0.872399 16.799 0.00242628 18.896 0 21.0833C0 21.3265 0.0965771 21.5596 0.268485 21.7315C0.440394 21.9034 0.673552 22 0.916667 22C1.15978 22 1.39294 21.9034 1.56485 21.7315C1.73676 21.5596 1.83333 21.3265 1.83333 21.0833C1.83333 19.3815 2.50937 17.7494 3.71273 16.5461C4.91609 15.3427 6.54819 14.6667 8.25 14.6667C9.95181 14.6667 11.5839 15.3427 12.7873 16.5461C13.9906 17.7494 14.6667 19.3815 14.6667 21.0833C14.6667 21.3265 14.7632 21.5596 14.9352 21.7315C15.1071 21.9034 15.3402 22 15.5833 22C15.8264 22 16.0596 21.9034 16.2315 21.7315C16.4034 21.5596 16.5 21.3265 16.5 21.0833C16.4976 18.896 15.6276 16.799 14.081 15.2524C12.5343 13.7057 10.4373 12.8358 8.25 12.8333Z"/>
</g>
<defs>
<clipPath id="clip0_8:5553">
<rect width="22" height="22"/>
</clipPath>
</defs>
</svg>
