<svg width="20" height="22" viewBox="0 0 20 22" fill="none" xmlns="http://www.w3.org/2000/svg">
<path d="M18.5195 12.7417L18.1125 12.507C18.2957 11.5101 18.2957 10.4881 18.1125 9.49117L18.5195 9.2565C18.8325 9.07593 19.1068 8.83549 19.3269 8.54889C19.5469 8.26229 19.7084 7.93516 19.802 7.58617C19.8957 7.23717 19.9196 6.87315 19.8726 6.51489C19.8255 6.15664 19.7084 5.81115 19.5278 5.49817C19.3472 5.18518 19.1068 4.91083 18.8202 4.69077C18.5336 4.47071 18.2065 4.30926 17.8575 4.21562C17.5085 4.12199 17.1445 4.09802 16.7862 4.14506C16.4279 4.19211 16.0825 4.30927 15.7695 4.48983L15.3616 4.72542C14.5911 4.06718 13.7058 3.55689 12.75 3.22025V2.75C12.75 2.02065 12.4602 1.32118 11.9445 0.805456C11.4288 0.289731 10.7293 0 9.99998 0C9.27063 0 8.57116 0.289731 8.05544 0.805456C7.53971 1.32118 7.24998 2.02065 7.24998 2.75V3.22025C6.29425 3.5581 5.40917 4.06963 4.63931 4.72908L4.22956 4.49167C3.59746 4.12699 2.84639 4.02836 2.14156 4.21746C1.43674 4.40656 0.835901 4.8679 0.471228 5.5C0.106556 6.1321 0.00791947 6.88318 0.197019 7.588C0.386118 8.29282 0.847462 8.89366 1.47956 9.25833L1.88656 9.493C1.70333 10.4899 1.70333 11.5119 1.88656 12.5088L1.47956 12.7435C0.847462 13.1082 0.386118 13.709 0.197019 14.4138C0.00791947 15.1187 0.106556 15.8697 0.471228 16.5018C0.835901 17.1339 1.43674 17.5953 2.14156 17.7844C2.84639 17.9735 3.59746 17.8748 4.22956 17.5102L4.63748 17.2746C5.40818 17.9329 6.29388 18.4432 7.24998 18.7798V19.25C7.24998 19.9793 7.53971 20.6788 8.05544 21.1945C8.57116 21.7103 9.27063 22 9.99998 22C10.7293 22 11.4288 21.7103 11.9445 21.1945C12.4602 20.6788 12.75 19.9793 12.75 19.25V18.7798C13.7057 18.4419 14.5908 17.9304 15.3606 17.2709L15.7704 17.5074C16.4025 17.8721 17.1536 17.9707 17.8584 17.7816C18.5632 17.5925 19.1641 17.1312 19.5287 16.4991C19.8934 15.867 19.992 15.1159 19.8029 14.4111C19.6138 13.7063 19.1525 13.1054 18.5204 12.7408L18.5195 12.7417ZM16.1838 9.28033C16.4942 10.4051 16.4942 11.593 16.1838 12.7178C16.1296 12.9136 16.142 13.1218 16.219 13.3098C16.2959 13.4978 16.4332 13.6549 16.6091 13.7564L17.6028 14.3303C17.8135 14.4518 17.9672 14.6521 18.0302 14.887C18.0932 15.1219 18.0603 15.3722 17.9388 15.5829C17.8172 15.7935 17.617 15.9473 17.382 16.0103C17.1471 16.0733 16.8968 16.0404 16.6861 15.9188L15.6906 15.3432C15.5146 15.2412 15.3095 15.2007 15.1079 15.2281C14.9062 15.2554 14.7194 15.3492 14.5769 15.4944C13.761 16.3274 12.7331 16.9216 11.6041 17.2132C11.4071 17.2638 11.2325 17.3786 11.1079 17.5394C10.9832 17.7002 10.9156 17.898 10.9157 18.1014V19.25C10.9157 19.4931 10.8192 19.7263 10.6472 19.8982C10.4753 20.0701 10.2422 20.1667 9.99906 20.1667C9.75595 20.1667 9.52279 20.0701 9.35088 19.8982C9.17897 19.7263 9.0824 19.4931 9.0824 19.25V18.1023C9.0825 17.8989 9.0149 17.7012 8.89027 17.5403C8.76563 17.3795 8.59103 17.2647 8.39398 17.2141C7.26496 16.9214 6.23736 16.3258 5.42215 15.4917C5.27963 15.3464 5.09282 15.2527 4.89117 15.2253C4.68952 15.1979 4.48449 15.2384 4.3084 15.3404L3.31473 15.9152C3.21044 15.9763 3.09509 16.0162 2.97531 16.0326C2.85553 16.049 2.7337 16.0415 2.61683 16.0106C2.49995 15.9797 2.39035 15.926 2.29431 15.8525C2.19828 15.7791 2.11772 15.6874 2.05728 15.5827C1.99683 15.478 1.95769 15.3624 1.94211 15.2425C1.92653 15.1226 1.93481 15.0009 1.96649 14.8842C1.99816 14.7675 2.0526 14.6583 2.12667 14.5627C2.20074 14.4672 2.29297 14.3873 2.39806 14.3275L3.39173 13.7537C3.56768 13.6521 3.70493 13.4951 3.78192 13.3071C3.8589 13.1191 3.87126 12.9109 3.81706 12.7151C3.50664 11.5903 3.50664 10.4024 3.81706 9.27758C3.87029 9.08222 3.85734 8.87474 3.78023 8.68752C3.70311 8.5003 3.56618 8.34387 3.39081 8.24267L2.39715 7.66883C2.18649 7.54728 2.03274 7.34701 1.96974 7.1121C1.90673 6.87719 1.93963 6.62687 2.06119 6.41621C2.18274 6.20555 2.38301 6.05181 2.61792 5.9888C2.85283 5.9258 3.10315 5.95869 3.31381 6.08025L4.30931 6.65592C4.48493 6.75814 4.68953 6.79911 4.89096 6.7724C5.0924 6.74568 5.27925 6.6528 5.42215 6.50833C6.23806 5.6754 7.26595 5.0811 8.3949 4.78958C8.59256 4.73877 8.76761 4.62344 8.89231 4.46188C9.01701 4.30031 9.08423 4.10176 9.08331 3.89767V2.75C9.08331 2.50688 9.17989 2.27373 9.3518 2.10182C9.52371 1.92991 9.75686 1.83333 9.99998 1.83333C10.2431 1.83333 10.4763 1.92991 10.6482 2.10182C10.8201 2.27373 10.9166 2.50688 10.9166 2.75V3.89767C10.9165 4.10113 10.9841 4.29884 11.1088 4.45966C11.2334 4.62047 11.408 4.73526 11.6051 4.78592C12.7344 5.07847 13.7623 5.67406 14.5778 6.50833C14.7203 6.65359 14.9071 6.7473 15.1088 6.77469C15.3104 6.80207 15.5155 6.76158 15.6916 6.65958L16.6852 6.08483C16.7895 6.02369 16.9049 5.98379 17.0246 5.96741C17.1444 5.95103 17.2663 5.95851 17.3831 5.98941C17.5 6.02031 17.6096 6.07402 17.7056 6.14745C17.8017 6.22089 17.8822 6.31259 17.9427 6.41728C18.0031 6.52198 18.0423 6.63759 18.0578 6.75747C18.0734 6.87736 18.0651 6.99913 18.0335 7.1158C18.0018 7.23247 17.9474 7.34172 17.8733 7.43726C17.7992 7.5328 17.707 7.61275 17.6019 7.6725L16.6082 8.24633C16.4332 8.34781 16.2966 8.50435 16.2199 8.69155C16.1431 8.87875 16.1304 9.08609 16.1838 9.28125V9.28033Z"/>
</svg>
