<svg width="22" height="22" viewBox="0 0 22 22" fill="none" xmlns="http://www.w3.org/2000/svg">
<g clip-path="url(#clip0_8:5656)">
<path d="M6.41667 20.1667H4.58333C3.85399 20.1667 3.15451 19.8769 2.63879 19.3612C2.12306 18.8455 1.83333 18.146 1.83333 17.4167V4.58333C1.83333 3.85399 2.12306 3.15451 2.63879 2.63879C3.15451 2.12306 3.85399 1.83333 4.58333 1.83333H6.41667C6.65978 1.83333 6.89294 1.73676 7.06485 1.56485C7.23676 1.39294 7.33333 1.15978 7.33333 0.916667C7.33333 0.673552 7.23676 0.440394 7.06485 0.268485C6.89294 0.0965771 6.65978 0 6.41667 0L4.58333 0C3.3682 0.00145554 2.20326 0.484808 1.34403 1.34403C0.484808 2.20326 0.00145554 3.3682 0 4.58333L0 17.4167C0.00145554 18.6318 0.484808 19.7967 1.34403 20.656C2.20326 21.5152 3.3682 21.9985 4.58333 22H6.41667C6.65978 22 6.89294 21.9034 7.06485 21.7315C7.23676 21.5596 7.33333 21.3264 7.33333 21.0833C7.33333 20.8402 7.23676 20.6071 7.06485 20.4352C6.89294 20.2632 6.65978 20.1667 6.41667 20.1667Z"/>
<path d="M9.59027 4.85193L5.38552 9.05576C4.87155 9.57229 4.58301 10.2713 4.58301 11C4.58301 11.7287 4.87155 12.4277 5.38552 12.9443L9.58936 17.1481C9.67392 17.2356 9.77507 17.3055 9.8869 17.3535C9.99874 17.4016 10.119 17.4269 10.2407 17.4279C10.3625 17.429 10.4832 17.4058 10.5958 17.3597C10.7085 17.3136 10.8108 17.2455 10.8969 17.1595C10.983 17.0734 11.051 16.971 11.0971 16.8584C11.1432 16.7457 11.1664 16.625 11.1653 16.5033C11.1643 16.3816 11.139 16.2613 11.091 16.1495C11.0429 16.0376 10.9731 15.9365 10.8855 15.8519L6.95211 11.9167H21.0834C21.3266 11.9167 21.5597 11.8201 21.7316 11.6482C21.9035 11.4763 22.0001 11.2431 22.0001 11C22.0001 10.7569 21.9035 10.5237 21.7316 10.3518C21.5597 10.1799 21.3266 10.0833 21.0834 10.0833H6.95119L10.8864 6.1481C10.974 6.06354 11.0438 5.96239 11.0919 5.85055C11.1399 5.73871 11.1652 5.61843 11.1663 5.49671C11.1673 5.375 11.1441 5.25429 11.098 5.14164C11.0519 5.02898 10.9839 4.92664 10.8978 4.84057C10.8117 4.7545 10.7094 4.68643 10.5967 4.64034C10.4841 4.59425 10.3634 4.57106 10.2417 4.57212C10.1199 4.57317 9.99966 4.59846 9.88782 4.6465C9.77598 4.69455 9.67483 4.76438 9.59027 4.85193Z"/>
</g>
<defs>
<clipPath id="clip0_8:5656">
<rect width="22" height="22"/>
</clipPath>
</defs>
</svg>
