<svg width="22" height="22" viewBox="0 0 22 22" fill="none" xmlns="http://www.w3.org/2000/svg">
<path d="M6.875 11.9167C6.05915 11.9167 5.26163 11.6747 4.58327 11.2215C3.90492 10.7682 3.37621 10.124 3.064 9.37024C2.75179 8.61649 2.6701 7.78709 2.82926 6.98692C2.98842 6.18675 3.38129 5.45174 3.95818 4.87485C4.53508 4.29796 5.27008 3.90509 6.07025 3.74593C6.87042 3.58676 7.69982 3.66845 8.45357 3.98066C9.20731 4.29288 9.85155 4.82159 10.3048 5.49994C10.7581 6.17829 11 6.97582 11 7.79167C10.9988 8.88531 10.5638 9.93382 9.79048 10.7071C9.01715 11.4805 7.96865 11.9155 6.875 11.9167ZM6.875 5.5C6.42175 5.5 5.97868 5.63441 5.60182 5.88622C5.22496 6.13803 4.93123 6.49594 4.75778 6.91468C4.58433 7.33343 4.53894 7.79421 4.62737 8.23875C4.71579 8.68329 4.93405 9.09163 5.25455 9.41212C5.57504 9.73262 5.98338 9.95088 6.42792 10.0393C6.87246 10.1277 7.33324 10.0823 7.75198 9.90889C8.17073 9.73544 8.52864 9.44171 8.78045 9.06485C9.03226 8.68799 9.16667 8.24492 9.16667 7.79167C9.16667 7.18388 8.92522 6.60099 8.49545 6.17121C8.06568 5.74144 7.48279 5.5 6.875 5.5ZM13.75 21.0833V20.625C13.75 18.8016 13.0257 17.053 11.7364 15.7636C10.447 14.4743 8.69836 13.75 6.875 13.75C5.05164 13.75 3.30295 14.4743 2.01364 15.7636C0.724328 17.053 0 18.8016 0 20.625L0 21.0833C0 21.3264 0.0965771 21.5596 0.268485 21.7315C0.440394 21.9034 0.673552 22 0.916667 22C1.15978 22 1.39294 21.9034 1.56485 21.7315C1.73676 21.5596 1.83333 21.3264 1.83333 21.0833V20.625C1.83333 19.2879 2.36451 18.0055 3.31 17.06C4.2555 16.1145 5.53787 15.5833 6.875 15.5833C8.21213 15.5833 9.4945 16.1145 10.44 17.06C11.3855 18.0055 11.9167 19.2879 11.9167 20.625V21.0833C11.9167 21.3264 12.0132 21.5596 12.1852 21.7315C12.3571 21.9034 12.5902 22 12.8333 22C13.0764 22 13.3096 21.9034 13.4815 21.7315C13.6534 21.5596 13.75 21.3264 13.75 21.0833ZM22 16.5C22 15.2613 21.6414 14.0491 20.9676 13.0097C20.2937 11.9703 19.3335 11.1481 18.2027 10.6425C17.0719 10.1368 15.8189 9.96929 14.5949 10.1601C13.371 10.3509 12.2285 10.8919 11.3053 11.7178C11.2143 11.7977 11.1401 11.8948 11.0869 12.0036C11.0337 12.1124 11.0025 12.2307 10.9953 12.3515C10.9881 12.4724 11.0048 12.5935 11.0447 12.7079C11.0845 12.8222 11.1466 12.9276 11.2274 13.0178C11.3082 13.108 11.406 13.1813 11.5153 13.2335C11.6245 13.2857 11.7431 13.3157 11.864 13.3218C11.985 13.328 12.1059 13.31 12.2199 13.2692C12.3339 13.2283 12.4386 13.1652 12.5281 13.0836C13.1876 12.4938 14.0037 12.1075 14.8779 11.9714C15.7521 11.8352 16.647 11.9549 17.4546 12.3161C18.2623 12.6774 18.9481 13.2646 19.4293 14.007C19.9106 14.7494 20.1667 15.6153 20.1667 16.5C20.1667 16.7431 20.2632 16.9763 20.4352 17.1482C20.6071 17.3201 20.8402 17.4167 21.0833 17.4167C21.3264 17.4167 21.5596 17.3201 21.7315 17.1482C21.9034 16.9763 22 16.7431 22 16.5ZM16.0417 8.25C15.2258 8.25 14.4283 8.00807 13.7499 7.55481C13.0716 7.10155 12.5429 6.45732 12.2307 5.70357C11.9185 4.94983 11.8368 4.12043 11.9959 3.32025C12.1551 2.52008 12.548 1.78508 13.1249 1.20819C13.7017 0.631295 14.4367 0.238427 15.2369 0.0792626C16.0371 -0.0799014 16.8665 0.0017873 17.6202 0.313999C18.374 0.62621 19.0182 1.15492 19.4715 1.83327C19.9247 2.51163 20.1667 3.30915 20.1667 4.125C20.1655 5.21865 19.7305 6.26715 18.9571 7.04048C18.1838 7.8138 17.1353 8.24879 16.0417 8.25ZM16.0417 1.83333C15.5884 1.83333 15.1453 1.96774 14.7685 2.21955C14.3916 2.47136 14.0979 2.82927 13.9244 3.24802C13.751 3.66677 13.7056 4.12754 13.794 4.57208C13.8825 5.01662 14.1007 5.42496 14.4212 5.74545C14.7417 6.06595 15.15 6.28421 15.5946 6.37263C16.0391 6.46106 16.4999 6.41568 16.9186 6.24223C17.3374 6.06877 17.6953 5.77505 17.9471 5.39818C18.1989 5.02132 18.3333 4.57825 18.3333 4.125C18.3333 3.51721 18.0919 2.93432 17.6621 2.50455C17.2323 2.07478 16.6495 1.83333 16.0417 1.83333Z"/>
</svg>
